<svg xmlns="http://www.w3.org/2000/svg" width="780" height="440" viewBox="0 0 780 440"><defs><style>.d{fill:#fff;}.e{fill:#a1d2f8;}.f{fill:#0c5689;}.g{fill:#162020;}.h{fill:#3896e3;}</style></defs><g id="a"><rect class="e" x=".0018" y=".0014" width="780" height="440"></rect></g><g id="b"><g><path class="d" d="M435.4417,283.7819l17.3797,3.8954c8.3971-10.6723,20.9015-18.1015,35.4661-19.7047,28.785-3.1684,54.6885,17.5981,57.8569,46.3831,3.1684,28.7851-17.5981,54.6886-46.3831,57.857-28.7851,3.1684-54.6886-17.5981-57.857-46.3832-1.1154-10.1338,.7461-19.9049,4.8692-28.4583l-11.3319-13.5893Z"></path><path class="g" d="M493.9863,373.1553c-26.6797,.0029-49.7178-20.1377-52.7031-47.2578-1.0742-9.7588,.5693-19.582,4.7539-28.4336l-12.2529-14.6934,18.791,4.2109c8.8701-11.1084,21.5127-18.0742,35.6436-19.6299,14.0889-1.5508,27.9365,2.4775,38.9941,11.3418,11.0576,8.8652,18.002,21.5059,19.5527,35.5938,3.2012,29.0811-17.8545,55.3457-46.9355,58.5469-1.9609,.2158-3.915,.3213-5.8438,.3213Zm-56.8877-88.3613l10.4121,12.4863-.1738,.3623c-4.2109,8.7354-5.874,18.458-4.8115,28.1182,3.126,28.3965,28.7646,48.9541,57.168,45.8311,28.3955-3.126,48.9551-28.7715,45.8301-57.168-1.5146-13.7559-8.2949-26.0986-19.0928-34.7549s-24.3203-12.5879-38.0752-11.0752c-13.9248,1.5332-26.3701,8.4473-35.043,19.4697l-.2432,.3096-15.9707-3.5791Z"></path></g><g><rect class="e" x="483.3958" y="287.5329" width="25.0643" height="50.2946" rx="12.5321" ry="12.5321" transform="translate(122.9836 -139.6758) rotate(18.2649)"></rect><path class="g" d="M491.9648,337.8184c-1.3633,0-2.75-.2148-4.1143-.6641h0c-3.3369-1.1016-6.0459-3.4365-7.627-6.5752s-1.8457-6.7051-.7441-10.043l7.9082-23.96c2.2734-6.8896,9.7295-10.6445,16.6182-8.3701,3.3369,1.1016,6.0459,3.4365,7.627,6.5752s1.8447,6.7051,.7432,10.043l-7.9072,23.96c-1.8232,5.5244-6.9795,9.0342-12.5039,9.0342Zm7.9258-49.0254c-4.999,0-9.665,3.1748-11.3154,8.1758l-7.9082,23.96c-.9971,3.0195-.7578,6.2471,.6729,9.0879s3.8828,4.9541,6.9033,5.9502h0c6.2295,2.0566,12.9805-1.3389,15.0381-7.5752l7.9072-23.96c.9971-3.0195,.7588-6.2471-.6729-9.0879-1.4307-2.8408-3.8818-4.9541-6.9023-5.9502-1.2334-.4072-2.4883-.6006-3.7227-.6006Z"></path></g><g><path class="f" d="M550.2203,252.1796l11.77,6.7645c-.7804,10.321,2.4172,20.9359,9.7734,29.3392,14.5385,16.6079,39.7877,18.2855,56.3956,3.7471,16.608-14.5385,18.2856-39.7878,3.7471-56.3957-14.5385-16.608-39.7878-18.2856-56.3957-3.7471-5.8468,5.1183-9.8345,11.5663-11.9243,18.4953l-13.3662,1.7967Z"></path><path class="g" d="M601.8604,302.5312c-11.3047,0-22.5537-4.6826-30.5674-13.8359-7.1426-8.1602-10.6699-18.5879-9.9541-29.4043l-13.0234-7.4854,14.792-1.9893c2.2236-7.1182,6.3643-13.4727,11.9912-18.3994,8.1582-7.1426,18.6182-10.6831,29.4277-9.959,10.8184,.7188,20.709,5.6074,27.8506,13.7646,7.1416,8.1582,10.6787,18.6084,9.96,29.4277-.7188,10.8184-5.6074,20.709-13.7656,27.8506-7.6865,6.7285-17.2188,10.0303-26.7109,10.0303Zm-49.7344-49.9775l10.5176,6.0449-.0303,.3926c-.8027,10.6201,2.6143,20.876,9.6211,28.8799,14.2881,16.3242,39.1924,17.9766,55.5127,3.6885,7.9072-6.9209,12.6455-16.5068,13.3428-26.9922,.6963-10.4854-2.7324-20.6143-9.6543-28.5205-6.9209-7.9072-16.5068-12.6455-26.9922-13.3418-10.4785-.7012-20.6143,2.7314-28.5205,9.6533-5.5527,4.8604-9.6113,11.1553-11.7373,18.2051l-.1162,.3848-11.9434,1.6055Z"></path></g><g><g><path class="h" d="M435.9789,168.1293l23.6496-.2681c7.965,16.1781,22.1594,29.2761,40.6363,35.3742,36.5171,12.0521,75.8904-7.7808,87.9425-44.2979,12.0521-36.5172-7.7808-75.8905-44.2979-87.9426-36.5172-12.0521-75.8905,7.7808-87.9426,44.298-4.2429,12.8559-4.5189,26.0614-1.5214,38.3087l-18.4664,14.5276Z"></path><path class="g" d="M522.1572,207.4038c-7.4082,.0005-14.8486-1.1855-22.0889-3.5747-17.915-5.9131-32.3984-18.4541-40.8252-35.3384l-25.0967,.2847,19.5967-15.417c-3.0195-12.6553-2.458-25.8755,1.6299-38.2612,5.8809-17.8198,18.3496-32.2827,35.1094-40.7246s35.8027-9.8521,53.623-3.9712c17.8193,5.8813,32.2832,18.3501,40.7246,35.1094,8.4424,16.7593,9.8516,35.8027,3.9707,53.6226s-18.3496,32.2827-35.1094,40.7246c-9.9502,5.0127-20.707,7.5459-31.5342,7.5459Zm-62.1416-40.1719l.1738,.3535c8.251,16.7583,22.5527,29.2085,40.2715,35.0562,17.5039,5.7783,36.209,4.3916,52.668-3.8999,16.4619-8.2915,28.708-22.4971,34.4844-40,5.7773-17.5029,4.3926-36.2075-3.8994-52.6689-8.292-16.4609-22.4971-28.7075-40.001-34.4839-17.502-5.7769-36.207-4.3916-52.668,3.8999s-28.708,22.4976-34.4844,40c-4.0566,12.291-4.5781,25.4185-1.5078,37.9644l.0957,.3906-17.3379,13.6396,22.2051-.2515Z"></path></g><g><path class="e" d="M484.4525,96.6387c1.2694,.419,4.7175,4.9004,5.8838,6.1651,1.1663,1.2647-1.6141,8.0897,2.9846,8.5516,.479,.0481,.9008,.1265,1.2721,.2284,2.1474,.589,2.8402,3.3023,1.2898,4.9005-1.3048,1.345-3.2947,3.3608-4.8048,4.7329-1.749,1.5892-4.4169,7.3846-4.5169,9.2873-.1926,3.6636,.8828,8.1219,2.3069,11.6713,.6406,1.5967,4.706,5.4685,3.1348,10.2289s-4.587,16.8308-4.7787,19.0111c-.15,1.7067,1.4972,10.3923,2.8285,13.8232,1.3313,3.4308,7.2104,8.0107,8.4243,7.5315,1.214-.4792-1.6525-4.8566-1.8143-5.9659s1.0622-7.084,1.7986-8.2488c.7364-1.1647,3.8725-3.869,5.4007-5.3003s10.4957-6.7421,11.3383-7.6958c.8426-.9537,2.3106-4.8684,3.6832-5.2952,1.3727-.4268,5.1779-.2267,5.8634-.7043l.6855-.4776s3.0638-7.077,4.0991-7.6215c1.5806-.8313,8.1789-4.8449,8.6259-6.1993s.6911-3.9319,.7707-4.1732-5.1943-4.48-5.1943-4.48c0,0-1.2836-2.8502-2.137-3.9407-.8534-1.0905-5.1057-1.6851-6.6849-1.8018-1.5791-.1168-1.3615-4.4695-1.3615-4.4695,.5745-2.274-1.7334-5.9446-4.3786-6.9936-2.6452-1.049-2.2819-2.9903-3.9634-4.5195-3.1129-2.8311-7.3991-4.6027-11.2022-4.3131-1.6245,.1237-4.7939,.5294-4.7939,.5294,0,0-5.4722-1.0142-5.0056-4.0276,.4666-3.0134,1.9901-6.0299,1.0904-6.5029-.8997-.4729-3.7545-.8872-3.4402-1.8393s4.2973-3.1569,3.5801-4.4494c-.2432-.4383-3.1736-1.0474-4.2813-.3572-1.1077,.6902-3.5879,1.8073-4.7542,.5425-1.1663-1.2647-1.6072-7.3932,4.3531-11.057,5.9604-3.6638,12.9534,2.3395,12.9534,2.3395,0,0-1.4601,6.5568,.2314,6.7632,1.6916,.2063,1.5968-3.8137,2.7705-5.7285,1.1438-1.8661,2.3305-2.4831,4.3913-2.6419,3.5661-.2748,7.3615-3.3773,8.6517-4.8872,.983-1.1504,10.348-3.0956,11.8269-3.3113,1.479-.2158,5.1926-3.3954,6.1075-4.1432,.7253-.5929,3.2568-.6183,5.5351-.6819-24.3114-7.9566-49.8678-1.7694-67.74,14.0603,.4388,1.4152,.7427,2.6272,.7032,3.4528-.1493,3.1182,6.9977,7.5886,8.2672,8.0075Z"></path><path class="g" d="M498.2666,193.4307c-.3018,0-.6572-.0923-1.0869-.2803-2.2393-.9795-6.5596-4.7207-7.71-7.6851-1.3467-3.4717-3.0342-12.2192-2.8691-14.104,.2021-2.2808,3.2578-14.4521,4.8086-19.1523,1.1104-3.3633-.8643-6.2856-2.1719-8.2197-.4336-.6411-.7754-1.1479-.9492-1.5806-1.6494-4.1094-2.5283-8.5718-2.3506-11.937,.1084-2.0635,2.8545-8.0215,4.7207-9.7168,1.4814-1.3472,3.415-3.3022,4.7764-4.7056,.584-.6025,.8008-1.4482,.5781-2.2627-.2148-.7886-.8076-1.3867-1.585-1.6001-.3486-.0957-.7422-.166-1.1689-.209-3.626-.3643-3.418-4.0254-3.2812-6.4482,.0469-.8223,.1172-2.0649-.1006-2.3018-.2998-.3247-.748-.8584-1.2705-1.4814-1.248-1.4873-3.5703-4.2568-4.3506-4.5137-1.3545-.4473-8.8652-5.0742-8.6943-8.6309,.0381-.813-.3408-2.1577-.6758-3.2383l-.1201-.3853,.3027-.2676c18.5889-16.4644,44.7783-21.8999,68.3477-14.1865l3.418,1.1187-4.0625,.1128c-1.6641,.0444-4.1787,.1108-4.6885,.5283l-.3145,.2598c-2.2656,1.8774-4.7617,3.8232-6.0996,4.0181-2.2354,.3262-10.6895,2.2524-11.4414,3.0991-1.3135,1.5381-5.2627,4.8101-9.0791,5.104-1.9609,.1514-2.9102,.7212-3.9053,2.3457-.4043,.6592-.6543,1.6597-.8965,2.627-.4414,1.7642-.918,3.5874-2.4824,3.3955-.3604-.0439-.6689-.2354-.8936-.5527-.9258-1.311-.248-5.1582,.0449-6.584-1.333-1.0254-7.084-5.0332-11.9346-2.0542-3.5791,2.1997-4.4775,5.1675-4.6953,6.7407-.2363,1.7061,.1357,2.9922,.4756,3.3599,.7812,.8496,2.7988,.0771,3.9629-.6489,1.0234-.6362,2.8877-.394,3.8271-.1504,.9561,.2476,1.2139,.5229,1.332,.7349,.6973,1.2568-.873,2.5767-2.2598,3.7412-.4199,.353-1.0332,.8677-1.2256,1.1304,.29,.2417,1.2715,.541,1.7656,.6914,.5361,.1636,.999,.3047,1.3242,.4756,1.0039,.5278,.5957,1.9385,.0303,3.8911-.291,1.0024-.6201,2.1392-.7939,3.2607-.335,2.1636,3.7529,3.1533,4.4131,3.2983,.5703-.0723,3.2471-.4072,4.7207-.519,3.8633-.2969,8.3154,1.4224,11.6709,4.4736,.7451,.6782,1.1348,1.4312,1.4795,2.0957,.5078,.981,.9082,1.7559,2.2939,2.3052,2.9385,1.1655,5.3652,5.0815,4.7686,7.6636-.084,1.9033,.2949,3.7207,.7871,3.7568,.0586,.0044,5.8887,.4526,7.1309,2.04,.7891,1.0088,1.8779,3.3354,2.1514,3.9321,5.4971,4.4204,5.4414,4.5854,5.2803,5.0708-.0137,.0654-.0439,.3022-.0879,.6226-.1309,.9502-.3486,2.5415-.6816,3.5498-.6182,1.8711-8.8467,6.5137-8.9287,6.5566-.5615,.3779-2.4209,4.0938-3.8164,7.3164l-.0703,.1626-.8311,.5796c-.4844,.3374-1.4795,.4043-3.1963,.4927-1.0615,.0547-2.2646,.1172-2.8389,.2954-.6465,.2012-1.6387,2.062-2.2314,3.1743-.4424,.8311-.8252,1.5488-1.1689,1.9385-.4473,.5054-2.333,1.7246-5.373,3.6714-2.4688,1.5815-5.2676,3.374-6.0068,4.0664-.3506,.3281-.7842,.7227-1.2549,1.1499-1.4863,1.3506-3.5215,3.2002-4.0449,4.0283-.6611,1.0459-1.8516,6.8398-1.709,7.8247,.041,.2788,.4297,1.0786,.7734,1.7847,.9746,2.0059,1.5889,3.3848,1.2539,4.2427-.1113,.2876-.3193,.4985-.6016,.6099-.1328,.0522-.2783,.0786-.4395,.0786Zm-22.0693-108.0493c.4629,1.5488,.6475,2.5425,.6123,3.2798-.127,2.6479,6.5859,6.9707,7.8389,7.3838,1.0342,.3418,2.7637,2.332,4.916,4.8979,.5068,.6045,.9404,1.1221,1.2314,1.437,.5771,.626,.5117,1.771,.4297,3.2202-.1621,2.8628-.1025,4.9062,2.1582,5.1333,.4971,.0503,.959,.1338,1.375,.248,1.207,.3311,2.127,1.2568,2.46,2.4761,.3398,1.2451,.0078,2.5396-.8877,3.4619-1.373,1.416-3.3262,3.3916-4.833,4.7603-1.625,1.4771-4.2188,7.0718-4.3125,8.8574-.168,3.1929,.6777,7.457,2.2627,11.4058,.124,.3091,.4492,.79,.8252,1.3467,1.3555,2.0068,3.626,5.3652,2.3232,9.311-1.6104,4.8774-4.5742,16.8721-4.75,18.8701-.1357,1.5435,1.4648,10.1294,2.7891,13.5425,1.2383,3.1924,6.2939,6.999,7.5225,7.1636,.0039-.5942-.8193-2.2866-1.2295-3.1309-.5059-1.0415-.8193-1.7026-.8848-2.1509-.1826-1.2554,1.0557-7.355,1.8887-8.6729,.6143-.9712,2.5518-2.7319,4.2607-4.2856,.4648-.4224,.8945-.8125,1.2402-1.1367,.8232-.771,3.5508-2.5181,6.1885-4.207,2.1191-1.3569,4.7559-3.0459,5.1094-3.4468,.2471-.2793,.6318-1.0005,1.0039-1.6982,1.0693-2.0063,1.9082-3.4521,2.9629-3.7798,.7236-.2251,1.9551-.2891,3.1455-.3501,.9053-.0469,2.2734-.1177,2.5537-.2754l.5322-.3711c.9883-2.271,3.2266-7.1934,4.3105-7.7632,2.4111-1.2681,8.0107-4.9209,8.3232-5.8423,.2979-.8994,.5059-2.4194,.6309-3.3281,.0293-.2153,.0518-.374,.0693-.4937-.5918-.5972-2.8555-2.4873-4.9219-4.1479l-.1172-.0942-.0615-.1362c-.0117-.0278-1.2617-2.7939-2.0586-3.8125-.5674-.7251-4.0156-1.3994-6.2383-1.5635-2.0303-.1504-1.999-3.96-1.9404-5.124l.0186-.1221c.4912-1.9443-1.6777-5.3374-4.0029-6.2593-1.8203-.7217-2.417-1.875-2.9434-2.8926-.3242-.6265-.6309-1.2183-1.2109-1.7456-3.1094-2.8286-7.2295-4.4204-10.7334-4.1523-1.5898,.1211-4.7305,.522-4.7627,.5264l-.0967,.0122-.0967-.0176c-.2471-.0459-6.0615-1.166-5.5078-4.7378,.1855-1.2007,.5264-2.3784,.8271-3.4175,.2588-.894,.6104-2.1055,.5283-2.4668-.2363-.1094-.6475-.2349-1.0469-.3564-1.1348-.3457-2.207-.6729-2.5693-1.3716-.1357-.2627-.1592-.5493-.0664-.8301,.166-.502,.71-.9771,1.6572-1.7725,.5098-.4282,2.0098-1.6885,1.9863-2.1177-.5361-.2969-2.6797-.6519-3.4199-.1904-1.7422,1.085-4.2383,1.8511-5.5449,.436-.7275-.79-1.0469-2.5493-.7939-4.3789,.248-1.7915,1.2627-5.1655,5.2793-7.6343,6.2783-3.8584,13.3887,2.1406,13.6885,2.3979l.2842,.2441-.0811,.3657c-.6182,2.7773-.7607,5.6982-.2939,6.0107,.4678,.085,.8291-1.3408,1.1094-2.4614,.2646-1.0591,.5391-2.1543,1.043-2.9771,1.2021-1.9609,2.5234-2.7573,4.876-2.9385,3.3916-.2617,7.0684-3.3164,8.2246-4.6704,1.3047-1.5273,12.1064-3.5083,12.2119-3.5239,.7764-.1128,2.6211-1.3721,5.4814-3.7432l.3213-.2651c.4316-.353,1.1699-.54,2.2246-.6489-22.0801-5.9326-46.002-.4424-63.3193,14.7144Z"></path></g><g><path class="e" d="M573.5609,90.865c-.1877,.1385-.3936,.2771-.6368,.4152-3.0861,1.7529-3.8371,2.4289-4.4274,3.8178-.5904,1.3889-4.3941,1.7172-4.3941,1.7172,0,0-5.5367,3.9796-6.3591,7.2715-.8225,3.2919-2.5197,5.6352-2.7566,5.953-.2368,.3178-.6249,3.0932,.3295,4.2,.9545,1.1069,.7663,4.4761,.8865,4.9118,.1202,.4356,2.6729,5.8972,4.4176,6.2091,1.7448,.3119,2.416-.5224,5.8697,1.4093,0,0,2.5374,.3095,3.4859-.5652,.9486-.8747,3.9274,1.2962,3.9309,2.4852,.0035,1.1889,2.9777,1.7746,2.9777,1.7746,0,0,1.3496,.7094-1.1713,5.9483,0,0-.7858,.7313,.0908,3.0988,.8766,2.3675,1.1715,8.2718-1.4707,12.6788-2.6423,4.407-2.678,5.715-2.1164,8.012,.5616,2.297-1.2452,7.7716-1.2452,7.7716,0,0,1.8802,5.8996,1.3684,7.0504-.5118,1.1509-1.6532,3.8096,.727,4.5952,1.3528,.4465,2.8057,.4573,3.918,.4196,4.7071-6.0805,8.4811-13.0484,11.0284-20.7666,8.1153-24.5888,1.7431-50.4731-14.4529-68.4074Z"></path><path class="g" d="M576.2461,180.6777c-1.0312,0-2.2314-.0874-3.375-.4644-.8027-.2656-1.3594-.7368-1.6533-1.4014-.6221-1.4067,.1709-3.1865,.5518-4.042,.2402-.5825-.5264-3.8867-1.3936-6.6064l-.0615-.1934,.0635-.1924c.4873-1.4761,1.6582-5.6875,1.2314-7.4272-.5957-2.4395-.5654-3.8896,2.1885-8.4814,2.584-4.3105,2.2002-10.0342,1.4209-12.1406-.8457-2.2812-.3066-3.3193-.0312-3.6636,1.6836-3.5239,1.4619-4.7437,1.3535-5.0342-.9922-.2202-3.2549-.8838-3.2588-2.3394-.001-.3774-.9482-1.4146-2.0244-1.8843-.5186-.2261-.8018-.1948-.8574-.1431-1.1299,1.041-3.6953,.7603-3.9863,.7266l-.2285-.0752c-2.2969-1.2847-3.2256-1.2715-4.2021-1.2524-.4434,.0044-.9033,.0146-1.4736-.0874-2.2773-.4067-4.8926-6.5972-4.9092-6.6582-.0479-.1729-.0586-.4165-.0771-.9512-.0361-.9927-.1104-3.0571-.6807-3.7183-1.1514-1.3364-.7783-4.4175-.3564-4.9824,.3057-.4106,1.874-2.6206,2.6504-5.73,.8691-3.4746,6.3672-7.4595,6.6006-7.6274l.1396-.1006,.1719-.0146c1.3838-.1206,3.5713-.6299,3.873-1.3394,.6602-1.5547,1.5371-2.3242,4.6934-4.1167,.2197-.1245,.4053-.25,.5742-.3745l.4561-.3359,.3789,.4199c16.8779,18.689,22.4658,45.1367,14.583,69.022-2.5107,7.6084-6.2549,14.6582-11.1279,20.9536l-.1797,.2319-.293,.0098c-.2402,.0083-.4951,.0142-.7607,.0142Zm-4.6182-12.7026c.5117,1.6294,1.8252,6.0854,1.2842,7.3032-.2842,.6372-.9482,2.1289-.5508,3.0283,.1475,.3325,.4424,.5679,.9023,.7197,1.1387,.376,2.3916,.4199,3.4072,.3965,4.6982-6.123,8.3145-12.9668,10.749-20.3462,7.6865-23.2881,2.334-49.0557-13.9609-67.3877-.0723,.0449-.1475,.0898-.2266,.1348-3.0527,1.7339-3.6592,2.3389-4.1602,3.5186-.6553,1.54-3.7568,1.978-4.7383,2.0791-.833,.6211-5.2939,4.0571-5.9844,6.8174-.835,3.3403-2.5293,5.729-2.8613,6.1738-.1572,.3672-.3789,2.6294,.3018,3.4189,.79,.917,.9209,2.7983,.9824,4.4893,.0117,.3208,.0156,.5664,.0371,.6807,.2598,.811,2.6787,5.522,3.9209,5.7437,.4502,.0801,.8281,.0752,1.2324,.0679,1.0312-.0156,2.207-.0366,4.7207,1.3496,.9453,.0952,2.3848,.0303,2.8691-.4175,.2881-.2651,.96-.6284,2.2041-.0835,1.1611,.5063,2.7715,1.8398,2.7754,3.0264,.001,.3335,1.249,.9204,2.4736,1.1631l.1699,.0601c.5664,.2979,1.6123,1.5537-.8984,6.7725l-.1377,.186h.001c.0068,0-.4209,.6143,.25,2.4248,.9854,2.6631,1.1836,8.7056-1.5205,13.2173-2.6514,4.4219-2.5439,5.5078-2.0459,7.542,.542,2.2148-.8711,6.895-1.1963,7.9214Z"></path></g><g><path class="e" d="M506.9751,100.6962c-.4466-.1474-.7941-.3514-1.0319-.6054l-.2099-.2263c-.5291-.5741-1.6316-1.7702-2.2957-1.9894-.7206,.0449-1.5032,.0955-2.157-.1203-.7597-.2507-1.182-.8119-1.1891-1.5795-.003-.3156,.2321-.5833,.5447-.6218,.1023-.0122,2.5131-.2976,4.6862,.4196,.511,.1687,.9751,.3831,1.3791,.6364,.5046,.3159,.9822,.6012,1.415,.8601,1.8486,1.1047,2.8679,1.7136,2.5338,2.6525-.3733,1.0498-2.591,.9318-3.6752,.574Z"></path><path class="g" d="M508.6846,101.5786c-.7041,0-1.4062-.124-1.9053-.2886l-.001-.0005c-.5469-.1807-.9814-.4404-1.292-.772l-.2109-.2275c-.3564-.3872-1.3955-1.5137-1.9404-1.7827-.7334,.0469-1.5332,.0771-2.25-.1587-1.0195-.3369-1.6084-1.127-1.6182-2.168-.0059-.6333,.4639-1.1699,1.0938-1.2471,.2734-.0332,2.709-.2959,4.958,.4463,.5576,.1841,1.0674,.4199,1.5146,.7002,.5,.3125,.9736,.5957,1.4023,.8525,1.9941,1.1909,3.3096,1.9771,2.8037,3.3989-.334,.9395-1.4463,1.2471-2.5547,1.2471Zm-1.5146-1.4761c1.1357,.3755,2.7285,.271,2.8916-.1899,.1553-.4355-.6699-.9526-2.2646-1.9058-.4385-.2622-.9189-.5498-1.4268-.8677-.3633-.2271-.7812-.4199-1.2441-.5728-2.0264-.6689-4.3164-.4043-4.415-.3921,.0107,.4951,.2588,.8198,.7656,.9873,.5342,.1768,1.2324,.1333,1.9053,.0908l.1201-.0078,.1318,.0371c.7539,.249,1.7158,1.2446,2.5586,2.1587l.209,.2251c.1611,.1729,.4277,.3242,.7686,.437h0Z"></path></g><g><path class="e" d="M510.9612,104.2193c-.4259-.1406-.7537-.3885-.9769-.7372-.3163-.4956-.1406-.8735-.0511-1.0131,.2049-.3191,.5905-.4433,1.0015-.4704,.0582-.2654,.2032-.5462,.4903-.805,.2892-.2613,.8024-.517,1.6035-.2526,.3303,.109,.6289,.2797,.8275,.3931,.3212,.1832,2.1568,1.6059,1.6064,2.7128-.3892,.781-1.3908,.571-2.1212,.4174-.2566-.054-.5216-.1096-.6722-.1095l-.2491,.0046c-.4285,.0105-.9614,.0241-1.4587-.14Z"></path><path class="g" d="M514.3857,105.231c-.4346,0-.8594-.0889-1.1729-.1548-.1602-.0342-.4551-.0962-.5439-.0967l-.2363,.0049c-.4531,.0098-1.0703,.0254-1.668-.1719h0c-.5654-.1865-1.0049-.521-1.3066-.9941-.3545-.5547-.373-1.1855-.0498-1.688,.1641-.2563,.4775-.5625,1.0625-.6953,.123-.2588,.3018-.4951,.5361-.7061,.3359-.3042,1.0752-.7573,2.2168-.3818,.3848,.1265,.7129,.3135,.9307,.437,.4746,.2705,2.6602,1.9468,1.8682,3.5405-.3584,.7188-1.0068,.9062-1.6367,.9062Zm-1.7285-1.5015c.2158,0,.4727,.0513,.8135,.1235,.8154,.1709,1.2871,.2095,1.4326-.0854,.2705-.5435-.9863-1.6797-1.3564-1.8906-.1953-.1108-.4482-.2549-.7139-.3423-.4219-.1392-.7432-.0991-.9893,.1226-.1602,.1445-.2607,.3047-.2988,.4761l-.1016,.4575-.4678,.0312c-.2637,.0176-.4521,.0845-.5156,.1836-.0557,.0864-.0381,.2002,.0508,.3398,.1455,.2275,.3574,.3848,.6465,.4805h0c.3926,.1289,.8428,.1172,1.2412,.1089l.2578-.0054h.001Z"></path></g></g><g><g><path class="f" d="M160.5791,258.8697l31.9777,101.4805,41.76-16.132s-26.1897-28.4133-21.8799-82.3726"></path><path class="g" d="M192.1611,361.1738l-32.1777-102.1162,1.1914-.375,31.7773,100.8447,40.3154-15.5742c-3.875-4.6836-25.373-33.0908-21.4541-82.1572l1.2461,.0996c-4.2363,53.0361,21.4561,81.6162,21.7168,81.8984l.6211,.6758-43.2363,16.7041Z"></path></g><g><circle class="f" cx="357.7325" cy="211.6936" r="29.931" transform="translate(93.7956 532.8229) rotate(-81.1987)"></circle><path class="g" d="M357.7148,242.25c-7.9004,0-15.3672-2.9922-21.0967-8.4688-5.8994-5.6396-9.25-13.2407-9.4336-21.3999h0c-.3789-16.8447,13.0156-30.8569,29.8604-31.2363,16.835-.3525,30.8564,13.0166,31.2363,29.8608,.1836,8.1597-2.8213,15.9023-8.4609,21.8027-5.6406,5.8994-13.2402,9.25-21.4004,9.4336-.2354,.0049-.4707,.0078-.7051,.0078Zm.0264-59.8628c-.2227,0-.4443,.0024-.6689,.0078-16.1543,.3638-29.002,13.8027-28.6377,29.958h0c.1758,7.8262,3.3887,15.1147,9.0469,20.5239,5.6592,5.4092,13.0684,8.2881,20.9111,8.1152,7.8252-.1758,15.1143-3.3896,20.5234-9.0479s8.292-13.0845,8.1152-20.9102c-.3584-15.9312-13.4346-28.647-29.29-28.647Z"></path></g><g><path class="d" d="M233.4453,167.4589s58.4877-9.2578,121.7745-50.7339l4.2803,190.1481s-64.3212-35.1509-123.9108-44.1676"></path><path class="g" d="M360.1494,307.9404l-.9492-.5186c-.6426-.3516-64.9102-35.2012-123.7051-44.0986l.1875-1.2363c55.1045,8.3389,114.9521,39.3662,123.168,43.7295l-4.2305-187.9531c-62.3203,40.5566-120.4941,50.1206-121.0771,50.2129l-.1953-1.2344c.584-.0928,59.0918-9.7197,121.5293-50.6396l.9424-.6172,4.3301,192.3555Z"></path></g><g><rect class="h" x="139.2586" y="168.5189" width="95.2707" height="95.2707" transform="translate(-4.8171 4.2607) rotate(-1.2895)"></rect><path class="g" d="M140.3428,265.4746c-.1611,0-.3154-.0615-.4316-.1729-.1201-.1152-.1895-.2725-.1934-.4385l-2.1445-95.2461c-.0039-.166,.0586-.3262,.1729-.4458,.1152-.1201,.2725-.1895,.4385-.1934l95.2471-2.144c.1387,.0029,.3262,.0591,.4453,.1733,.1201,.1143,.1895,.272,.1934,.4375l2.1436,95.2466c.0078,.3447-.2656,.6309-.6113,.6387l-95.2461,2.1445h-.0137Zm-1.5059-95.2607l2.1162,93.9971,93.9971-2.1162-2.1152-93.9971-93.998,2.1162Z"></path></g></g><g><line class="d" x1="472.5419" y1="347.5246" x2="493.979" y2="354.5997"></line><path class="g" d="M493.9785,355.2246c-.0645,0-.1309-.0098-.1963-.0312l-21.4365-7.0752c-.3271-.1084-.5059-.4619-.3975-.79,.1084-.3271,.458-.5068,.79-.3975l21.4365,7.0752c.3271,.1084,.5059,.4619,.3975,.79-.0869,.2627-.3311,.4287-.5938,.4287Z"></path></g><g><g><g><line class="d" x1="481.5519" y1="317.1706" x2="488.8867" y2="319.5914"></line><path class="g" d="M488.8867,320.2168c-.0645,0-.1309-.0098-.1963-.0312l-7.335-2.4209c-.3271-.1084-.5059-.4619-.3975-.79,.1084-.3271,.457-.5059,.79-.3975l7.335,2.4209c.3271,.1084,.5059,.4619,.3975,.79-.0869,.2627-.3311,.4287-.5938,.4287Z"></path></g><g><line class="d" x1="484.6039" y1="307.9232" x2="491.9387" y2="310.344"></line><path class="g" d="M491.9385,310.9688c-.0645,0-.1309-.0098-.1963-.0312l-7.335-2.4209c-.3271-.1084-.5059-.4619-.3975-.79,.1084-.3271,.459-.5049,.79-.3975l7.335,2.4209c.3271,.1084,.5059,.4619,.3975,.79-.0869,.2627-.3311,.4287-.5938,.4287Z"></path></g><g><line class="d" x1="487.6559" y1="298.6758" x2="494.9907" y2="301.0966"></line><path class="g" d="M494.9912,301.7217c-.0645,0-.1309-.0098-.1963-.0312l-7.335-2.4209c-.3271-.1084-.5059-.4619-.3975-.79,.1084-.3271,.46-.5049,.79-.3975l7.335,2.4209c.3271,.1084,.5059,.4619,.3975,.79-.0869,.2627-.3311,.4287-.5938,.4287Z"></path></g></g><g><g><line class="d" x1="497.4721" y1="322.4249" x2="504.8069" y2="324.8457"></line><path class="g" d="M504.8066,325.4707c-.0645,0-.1309-.0098-.1963-.0312l-7.335-2.4209c-.3271-.1084-.5059-.4619-.3975-.79,.1084-.3271,.459-.5059,.79-.3975l7.335,2.4209c.3271,.1084,.5059,.4619,.3975,.79-.0869,.2627-.3311,.4287-.5938,.4287Z"></path></g><g><line class="d" x1="500.5241" y1="313.1775" x2="507.8589" y2="315.5983"></line><path class="g" d="M507.8594,316.2236c-.0645,0-.1309-.0098-.1963-.0312l-7.335-2.4209c-.3271-.1084-.5059-.4619-.3975-.79,.1084-.3271,.459-.5059,.79-.3975l7.335,2.4209c.3271,.1084,.5059,.4619,.3975,.79-.0869,.2627-.3311,.4287-.5938,.4287Z"></path></g><g><line class="d" x1="503.5761" y1="303.9301" x2="510.9109" y2="306.3509"></line><path class="g" d="M510.9111,306.9756c-.0645,0-.1309-.0098-.1963-.0312l-7.335-2.4209c-.3271-.1084-.5059-.4619-.3975-.79,.1084-.3271,.459-.5068,.79-.3975l7.335,2.4209c.3271,.1084,.5059,.4619,.3975,.79-.0869,.2627-.3311,.4287-.5938,.4287Z"></path></g></g></g><g><line class="d" x1="483.2604" y1="351.0621" x2="486.2085" y2="342.1296"></line><path class="g" d="M483.2607,351.6875c-.0645,0-.1309-.0098-.1963-.0312-.3271-.1084-.5059-.4619-.3975-.79l2.9482-8.9326c.1084-.3271,.46-.5049,.79-.3975,.3271,.1084,.5059,.4619,.3975,.79l-2.9482,8.9326c-.0869,.2627-.3311,.4287-.5938,.4287Z"></path></g><path class="g" d="M491.5186,343.2725c-1.8154,0-3.6328-.2803-5.4023-.8643-8.6436-2.8525-13.917-12.2324-12.5391-22.3027,.0469-.3428,.3594-.585,.7041-.5342,.3418,.0469,.5811,.3623,.5342,.7041-1.2959,9.4736,3.6211,18.2822,11.6934,20.9453,8.0684,2.666,17.2656-1.4873,21.8633-9.8701,.165-.3027,.543-.416,.8486-.2471,.3027,.166,.4131,.5459,.2471,.8486-3.8867,7.0869-10.8955,11.3193-17.9492,11.3203Z"></path><g><path class="d" d="M578.709,266.6133c3.9587-.5775,9.9248-3.6722,12.3897-7.2151-.6018,.0367-1.6268-.0662-2.583-.3818-4.5651-1.5067-7.1261-6.2376-5.3739-11.5468,1.7872-5.4152,7.6845-8.2973,12.9936-6.5451,5.7348,1.8927,9.3596,8.0351,6.7663,15.8927-2.8387,8.6009-10.0344,14.7042-19.2191,17.5603l-4.9736-7.7642Zm23.9978,7.9202c3.9587-.5775,9.8187-3.7072,12.2836-7.2501-.4945,.0721-1.6268-.0662-2.583-.3818-4.5651-1.5067-7.0188-6.2022-5.2666-11.5113,1.7872-5.4152,7.6833-8.2977,12.8863-6.5805,5.7348,1.8927,9.4657,8.0701,6.8724,15.9277-2.8387,8.6009-10.0344,14.7042-19.2191,17.5603l-4.9736-7.7642Z"></path><path class="g" d="M607.4111,283.0361l-5.7529-8.9814,.959-.1396c3.3496-.4893,8.4297-3.0156,11.1279-6.0635-.5049-.0732-1.0488-.1963-1.5342-.3564-5.0801-1.6768-7.4629-6.8506-5.6641-12.3008,1.8857-5.7139,8.0195-8.8408,13.6768-6.9785,3.083,1.0176,5.543,3.167,6.9268,6.0508,1.4971,3.1211,1.6152,6.8096,.3428,10.667-2.8125,8.5205-9.7832,14.8994-19.627,17.9609l-.4551,.1416Zm-3.6777-8.0586l4.2148,6.5791c9.208-2.9902,15.7178-9.0186,18.3574-17.0156,1.1699-3.543,1.0723-6.9092-.2832-9.7344-1.2344-2.5742-3.4336-4.4932-6.1914-5.4033-4.9131-1.6201-10.4561,1.208-12.0967,6.1836-1.5723,4.7617,.4756,9.2715,4.8691,10.7207,.9375,.3105,1.959,.4033,2.2959,.3574l1.4277-.209-.8242,1.1836c-2.4238,3.4854-7.7949,6.4492-11.7695,7.3379Zm-20.3203,.1387l-5.7529-8.9814,.959-.1396c3.4121-.498,8.5479-3.0146,11.2383-6.0361-.4766-.0635-1.0078-.1738-1.5381-.3486-5.1426-1.6982-7.5703-6.8857-5.7715-12.3369,.9131-2.7666,2.8633-5.0117,5.4912-6.3232,2.6104-1.3027,5.5537-1.5234,8.293-.6191,3.0762,1.0156,5.5186,3.1592,6.875,6.0371,1.4629,3.1025,1.5625,6.7832,.2881,10.6455-2.8115,8.5205-9.7822,14.8994-19.627,17.9609l-.4551,.1416Zm-3.6768-8.0576l4.2139,6.5781c9.209-2.9902,15.7188-9.0186,18.3574-17.0156,1.1729-3.5518,1.0928-6.9131-.2314-9.7207-1.209-2.5635-3.3887-4.4746-6.1367-5.3818-2.4209-.8018-5.0303-.6055-7.3428,.5498-2.3271,1.1611-4.0537,3.1494-4.8613,5.5977-1.5723,4.7627,.5205,9.2861,4.9766,10.7568,.8721,.2891,1.8145,.3809,2.3496,.3516l1.2861-.0771-.7363,1.0576c-2.4053,3.458-7.8359,6.4121-11.875,7.3037Z"></path></g></g><g id="c"></g></svg>